<svg width="38" height="38" viewBox="0 0 38 38" fill="none" xmlns="http://www.w3.org/2000/svg">
<path id="Vector" d="M19 0C8.50686 0 0 8.50686 0 19C0 29.4931 8.50686 38 19 38C29.4931 38 38 29.4931 38 19C38 8.50686 29.4931 0 19 0ZM19.0324 29.4153C17.5865 29.4153 16.4066 28.2353 16.4066 26.7894C16.4066 25.3435 17.5865 24.1635 19.0324 24.1635C20.4784 24.1635 21.6583 25.3435 21.6583 26.7894C21.6583 28.2353 20.4784 29.4153 19.0324 29.4153ZM21.7725 11.605L21.0116 20.2818C20.9733 20.8144 20.7073 21.3093 20.2883 21.6518C19.9458 21.9561 19.4891 22.1085 18.9942 22.1085H18.8041C17.8525 22.0326 17.0533 21.271 16.9774 20.2818L16.2165 11.605C16.1406 10.8817 16.3683 10.1591 16.8632 9.58822C17.3582 9.01738 18.0049 8.67487 18.7282 8.59898C19.4891 8.52308 20.1741 8.75077 20.745 9.24572C21.3158 9.70239 21.6583 10.3874 21.7342 11.1107C21.8101 11.3008 21.8101 11.4532 21.7725 11.605Z" fill="#32B6BE"/>
</svg>
