<svg width="20" height="18" viewBox="0 0 20 18" fill="none" xmlns="http://www.w3.org/2000/svg">
<path d="M19.9149 6.15321C19.8232 5.97579 19.7008 5.8201 19.486 5.7242C19.1671 5.58211 18.79 5.64772 18.5278 5.87407C18.4644 5.92881 18.4042 5.98782 18.344 6.04644C15.5104 8.80529 12.6776 11.5641 9.84446 14.3234C9.57103 14.5897 9.28086 14.8389 8.97514 15.0696C8.26046 15.6084 7.55615 16.164 6.6079 16.3065C5.21523 16.5158 3.99713 16.1908 2.98591 15.2066C2.33222 14.5703 1.91967 13.8144 1.78017 12.9241C1.58884 11.7004 1.77897 10.5031 2.65986 9.61399C2.7902 9.48238 2.91854 9.33524 3.0445 9.21255C5.34317 6.97667 7.65141 4.79165 9.94491 2.55072C10.3551 2.15006 10.7975 1.82161 11.3778 1.69193C12.7147 1.39376 14.0468 2.22266 14.3015 3.53957C14.4649 4.384 14.2393 5.1135 13.6893 5.81195C12.8614 6.86292 11.8378 7.71976 10.8967 8.65737C9.86519 9.68543 8.82048 10.7007 7.77179 11.712C7.36563 12.1042 6.97859 12.5145 6.52141 12.857C6.14633 13.1377 5.69393 13.1404 5.37506 12.8181C5.05659 12.4963 5.05659 12.0382 5.38702 11.707C5.75651 11.3366 6.13398 10.9736 6.50905 10.6083C8.52473 8.64494 10.5412 6.68238 12.5561 4.71827C12.9662 4.31838 12.9591 3.79503 12.5449 3.44523C12.2332 3.182 11.8155 3.16453 11.4851 3.40641C11.401 3.46814 11.3256 3.54229 11.2507 3.61528C8.95321 5.85194 6.66052 8.09364 4.35507 10.3221C3.91422 10.7484 3.57383 11.2155 3.44987 11.811C3.22665 12.8845 3.7803 13.972 4.8254 14.4833C5.66962 14.8964 6.50467 14.8638 7.32497 14.3866C7.61395 14.2185 7.85868 14.01 8.09345 13.781C10.3563 11.5742 12.6446 9.39192 14.8715 7.15177C15.5846 6.4343 16.0864 5.54251 16.1558 4.49232C16.2255 3.43514 16.021 2.44629 15.3434 1.59099C14.5761 0.622328 13.5549 0.0985911 12.303 0.0124019C10.9103 -0.0834938 9.73525 0.378514 8.75232 1.33786C6.53775 3.49997 4.33872 5.67839 2.08788 7.80362C1.45213 8.40384 0.897289 9.02891 0.538158 9.80734C-0.967322 13.0678 0.765354 17.109 4.7417 17.8866C5.06695 17.9503 5.39778 17.9612 5.72582 18L6.0714 17.9961C6.36277 17.9561 6.65733 17.9476 6.9483 17.8979C8.26046 17.6727 9.41 17.0756 10.3359 16.1943C13.439 13.2406 16.4858 10.2301 19.5561 7.24262C19.9256 6.86059 20.0161 6.63463 19.9978 6.42149C19.9898 6.32753 19.9579 6.23746 19.9145 6.15321L19.9149 6.15321Z" fill="#89ABAD"/>
</svg>
