<svg width="19" height="19" viewBox="0 0 19 19" fill="none" xmlns="http://www.w3.org/2000/svg">
<path d="M18.7125 7.65356L11.6849 1.16934C11.4226 0.926957 11.1939 0.716203 10.9921 0.554993C10.7779 0.383493 10.5495 0.231048 10.2776 0.134627C9.77308 -0.0448758 9.2282 -0.0448758 8.72368 0.134627C8.45177 0.23143 8.22376 0.383493 8.0092 0.554993C7.8074 0.716584 7.57868 0.927338 7.31633 1.16934L0.28844 7.65356C0.00449172 7.91577 -0.0829585 8.35367 0.0852151 8.72258C0.226127 9.0309 0.525653 9.21803 0.844652 9.21803H1.18702H1.23906V15.3852C1.23906 15.8147 1.23906 16.1851 1.26031 16.4911C1.28261 16.8136 1.33218 17.1352 1.46672 17.4493C1.71384 18.0263 2.14401 18.4893 2.68005 18.7549C2.75829 18.7938 2.83724 18.8258 2.91655 18.8525C3.13217 18.9257 3.35097 18.9592 3.56977 18.9771C3.85408 19 4.19821 19 4.59723 19H5.79037C6.4574 19 6.99804 18.418 6.99804 17.7V13.895C6.99804 13.6896 6.99804 13.4891 7.00972 13.3192C7.02282 13.1328 7.05327 12.9125 7.14957 12.6873C7.3142 12.3027 7.60098 11.994 7.95822 11.8168C8.16746 11.7128 8.37246 11.68 8.54524 11.6663C8.70314 11.6533 8.88902 11.6537 9.0802 11.6537H9.95471C10.1455 11.6537 10.3318 11.6537 10.4897 11.6663C10.6628 11.6804 10.8674 11.7132 11.0767 11.8168C11.4339 11.994 11.7207 12.3027 11.8853 12.6873C11.982 12.9125 12.0124 13.1332 12.0252 13.3192C12.0369 13.4891 12.0369 13.6892 12.0369 13.895V17.7C12.0369 18.418 12.5775 19 13.2445 19H14.4026C14.8017 19 15.1458 19 15.4301 18.9771C15.6489 18.9596 15.8673 18.9257 16.083 18.8529C16.1623 18.8258 16.2416 18.7942 16.3202 18.7549C16.8562 18.4889 17.286 18.0263 17.5331 17.4493C17.6677 17.1352 17.7173 16.8136 17.7396 16.4911C17.7608 16.1851 17.7608 15.8147 17.7608 15.3852V9.21803H18.1549C18.4739 9.21803 18.7734 9.03128 18.9143 8.72334C19.0832 8.35481 18.9957 7.91615 18.7114 7.65356H18.7125Z" fill="#207A80"/>
</svg>
