<svg width="18" height="19" viewBox="0 0 18 19" fill="none" xmlns="http://www.w3.org/2000/svg">
<path d="M5 6L5 5C5 2.79086 6.79086 1 9 1V1C11.2091 1 13 2.79086 13 5L13 6" stroke="#207A80" stroke-width="2" stroke-linecap="round"/>
<path fill-rule="evenodd" clip-rule="evenodd" d="M0.585786 5.58579C0 6.17157 0 7.11438 0 9V11C0 14.7712 0 16.6569 1.17157 17.8284C2.34315 19 4.22876 19 8 19H10C13.7712 19 15.6569 19 16.8284 17.8284C18 16.6569 18 14.7712 18 11V9C18 7.11438 18 6.17157 17.4142 5.58579C16.8284 5 15.8856 5 14 5H4C2.11438 5 1.17157 5 0.585786 5.58579ZM12.5303 10.5303C12.8232 10.2374 12.8232 9.76256 12.5303 9.46967C12.2374 9.17678 11.7626 9.17678 11.4697 9.46967L8.17678 12.7626C8.07914 12.8602 7.92085 12.8602 7.82322 12.7626L6.53033 11.4697C6.23744 11.1768 5.76256 11.1768 5.46967 11.4697C5.17678 11.7626 5.17678 12.2374 5.46967 12.5303L6.76256 13.8232C7.44598 14.5066 8.55402 14.5066 9.23744 13.8232L12.5303 10.5303Z" fill="#207A80"/>
</svg>
