<svg width="17" height="18" viewBox="0 0 17 18" fill="none" xmlns="http://www.w3.org/2000/svg">
<path d="M8.49994 17C12.6421 17 15.9999 13.4183 15.9999 9.00001C15.9999 4.58173 12.6421 1 8.49994 1C4.35782 1 0.999939 4.58173 0.999939 9.00001C0.999939 13.4183 4.35782 17 8.49994 17Z" stroke="#207A80" stroke-miterlimit="10"/>
<path d="M2.28168 13.467C3.62742 12.594 13.3703 12.594 14.7161 13.467" stroke="#207A80" stroke-miterlimit="10"/>
<path d="M1.99109 5.02881C3.28175 5.96174 13.7172 5.96174 15.0079 5.02881" stroke="#207A80" stroke-miterlimit="10"/>
<path d="M8.50011 17C10.4821 17 12.0888 13.4183 12.0888 9.00001C12.0888 4.58173 10.4821 1 8.50011 1C6.51815 1 4.9115 4.58173 4.9115 9.00001C4.9115 13.4183 6.51815 17 8.50011 17Z" stroke="#207A80" stroke-miterlimit="10"/>
<path d="M0.999939 9.34399H15.9999" stroke="#207A80" stroke-miterlimit="10"/>
</svg>
