<svg width="14" height="14" viewBox="0 0 14 14" fill="none" xmlns="http://www.w3.org/2000/svg">
<circle cx="7" cy="7" r="7" transform="matrix(-1 0 0 1 14 0)" fill="#207A80"/>
<path d="M6.20954 3.79612L6.34803 8.88845H7.64775L7.78979 3.79612H6.20954ZM6.99789 11.1612C7.23226 11.1612 7.43349 11.0783 7.60158 10.9126C7.76967 10.7445 7.85253 10.5433 7.85016 10.3089C7.85253 10.0769 7.76967 9.87803 7.60158 9.71231C7.43349 9.54659 7.23226 9.46373 6.99789 9.46373C6.77298 9.46373 6.5753 9.54659 6.40485 9.71231C6.23439 9.87803 6.14798 10.0769 6.14561 10.3089C6.14798 10.4652 6.18941 10.6084 6.2699 10.7386C6.34803 10.8664 6.45101 10.9694 6.57885 11.0475C6.70669 11.1233 6.84637 11.1612 6.99789 11.1612Z" fill="white"/>
</svg>
