<svg width="7" height="13" viewBox="0 0 7 13" fill="none" xmlns="http://www.w3.org/2000/svg">
<g opacity="0.3" clip-path="url(#clip0_391_9362)">
<path d="M0.597354 12.0269L0.5976 12.0271C0.660619 12.0887 0.740914 12.119 0.823129 12.119C0.907324 12.119 0.990443 12.0866 1.0541 12.0217L0.597354 12.0269ZM0.597354 12.0269C0.4699 11.9026 0.467361 11.698 0.591933 11.5705L0.59216 11.5703L5.38498 6.65851L5.72572 6.30931L5.38498 5.96012L0.592046 1.04834L0.591882 1.04818C0.467165 0.920487 0.469877 0.715941 0.597182 0.591814L0.248126 0.23382L0.596942 0.592048C0.725404 0.466961 0.930046 0.470049 1.05415 0.597115M0.597354 12.0269L1.05415 0.597115M1.05415 0.597115L6.40777 6.08362L6.40793 6.08378C6.53057 6.20935 6.53066 6.40926 6.40787 6.53502L6.40777 6.53512L1.05439 12.0214L1.05415 0.597115Z" fill="#8C8C8C" stroke="black"/>
</g>
<defs>
<clipPath id="clip0_391_9362">
<rect width="7" height="12.619" fill="white"/>
</clipPath>
</defs>
</svg>
