<svg width="18" height="19" viewBox="0 0 18 19" fill="none" xmlns="http://www.w3.org/2000/svg">
<path fill-rule="evenodd" clip-rule="evenodd" d="M8 6H2C1.05719 6 0.585786 6 0.292893 6.29289C0 6.58579 0 7.05719 0 8V9C0 9.94281 0 10.4142 0.292893 10.7071C0.585786 11 1.05719 11 2 11H3H8V6ZM3 13V17C3 17.9428 3 18.4142 3.29289 18.7071C3.58579 19 4.05719 19 5 19H8V13H3ZM10 19H13C13.9428 19 14.4142 19 14.7071 18.7071C15 18.4142 15 17.9428 15 17V13H10V19ZM15 11H16C16.9428 11 17.4142 11 17.7071 10.7071C18 10.4142 18 9.94281 18 9V8C18 7.05719 18 6.58579 17.7071 6.29289C17.4142 6 16.9428 6 16 6H10V11H15Z" fill="#207A80"/>
<path d="M16 2.63246V2.45035C16 1.24487 14.819 0.393664 13.6754 0.774867C12.2448 1.25174 10.9449 2.05514 9.87856 3.12144L9 4V5H12.6754C12.8904 5 13.104 4.96534 13.3079 4.89737L14.7026 4.43246C15.4774 4.1742 16 3.44914 16 2.63246Z" fill="#207A80"/>
<path d="M2 2.63246V2.45035C2 1.24487 3.18099 0.393664 4.3246 0.774867C5.75521 1.25174 7.05514 2.05514 8.12144 3.12144L9 4V5H5.32456C5.10959 5 4.89603 4.96534 4.6921 4.89737L3.29737 4.43246C2.52259 4.1742 2 3.44914 2 2.63246Z" fill="#207A80"/>
</svg>
